<svg viewBox="0 0 48 48" xmlns="http://www.w3.org/2000/svg">
  <path d="M12 24C10 18 14 12 20 13 21 8 28 8 30 13 36 12 39 18 36 24Z" fill="#2e7d32"/>
  <g fill="#388e3c">
    <circle cx="18" cy="22" r="4"/><circle cx="24" cy="20" r="4.5"/>
    <circle cx="30" cy="22" r="4"/><circle cx="21" cy="25" r="3.6"/>
    <circle cx="27" cy="25" r="3.6"/><circle cx="24" cy="24" r="4"/>
  </g>
  <g fill="#43a047">
    <circle cx="18" cy="21" r="1.6"/><circle cx="24" cy="19" r="1.8"/>
    <circle cx="30" cy="21" r="1.6"/><circle cx="24" cy="24" r="1.6"/>
  </g>
  <path d="M24 26V42M20 31C20 36 20 40 20 42M28 31C28 36 28 40 28 42" stroke="#558b2f" stroke-width="2.2" fill="none" stroke-linecap="round"/>
</svg>
