<svg viewBox="0 0 48 48" xmlns="http://www.w3.org/2000/svg">
  <path d="M24 44V20" stroke="#33691e" stroke-width="2.2" stroke-linecap="round"/>
  <g fill="#558b2f">
    <path d="M24 22C18 22 12 17 12 10 19 10 25 14 24 22Z"/>
    <path d="M24 22C30 22 36 17 36 10 29 10 23 14 24 22Z"/>
    <path d="M24 18C19 16 15 11 15 5 21 6 25 11 24 18Z"/>
    <path d="M24 18C29 16 33 11 33 5 27 6 23 11 24 18Z"/>
    <path d="M24 15C22 10 22 6 24 2 26 6 26 10 24 15Z"/>
  </g>
  <g fill="#7cb342">
    <circle cx="16" cy="13" r="2.4"/><circle cx="32" cy="13" r="2.4"/>
    <circle cx="20" cy="8" r="2.2"/><circle cx="28" cy="8" r="2.2"/>
    <circle cx="24" cy="11" r="2.2"/>
  </g>
</svg>
