<svg viewBox="0 0 48 48" xmlns="http://www.w3.org/2000/svg">
  <path d="M24 46C16 42 14 30 18 18 22 26 24 38 24 46Z" fill="#5aa84f"/>
  <path d="M24 46C32 42 34 30 30 18 26 26 24 38 24 46Z" fill="#74c266"/>
  <path d="M24 8C30 8 31 16 31 24 31 32 28 38 24 40 20 38 17 32 17 24 17 16 18 8 24 8Z" fill="#f5c542" stroke="#d9a900" stroke-width="0.8"/>
  <g fill="#e3ad00">
    <circle cx="21" cy="14" r="1.3"/><circle cx="24" cy="14" r="1.3"/><circle cx="27" cy="14" r="1.3"/>
    <circle cx="20" cy="19" r="1.3"/><circle cx="24" cy="19" r="1.3"/><circle cx="28" cy="19" r="1.3"/>
    <circle cx="20" cy="24" r="1.3"/><circle cx="24" cy="24" r="1.3"/><circle cx="28" cy="24" r="1.3"/>
    <circle cx="21" cy="29" r="1.3"/><circle cx="24" cy="29" r="1.3"/><circle cx="27" cy="29" r="1.3"/>
    <circle cx="22" cy="34" r="1.2"/><circle cx="24" cy="34" r="1.2"/><circle cx="26" cy="34" r="1.2"/>
  </g>
</svg>
