<svg viewBox="0 0 48 48" xmlns="http://www.w3.org/2000/svg">
  <g fill="none" stroke-width="2.4" stroke-linecap="round">
    <path d="M20 6C16 12 16 20 19 26" stroke="#66bb6a"/>
    <path d="M28 6C32 12 32 20 29 26" stroke="#66bb6a"/>
    <path d="M24 5V26" stroke="#43a047"/>
    <path d="M22 7C20 11 20 16 21 22" stroke="#81c784"/>
    <path d="M26 7C28 11 28 16 27 22" stroke="#81c784"/>
  </g>
  <path d="M19 26C19 24 29 24 29 26V40C29 43 19 43 19 40Z" fill="#f5f5f0"/>
  <path d="M19 26C19 24 29 24 29 26V40C29 43 19 43 19 40Z" fill="none" stroke="#dce5dc" stroke-width="0.8"/>
  <path d="M24 26V41M22 27V40M26 27V40" stroke="#e0e8e0" stroke-width="0.9" stroke-linecap="round"/>
  <path d="M19 40C19 38 29 38 29 40" stroke="#cdd6cd" stroke-width="1"/>
</svg>
